<?xml version="1.0" encoding="UTF-8" standalone="no"?>
<!-- Created with Inkscape (http://www.inkscape.org/) -->

<svg
   width="350mm"
   height="100mm"
   viewBox="0 0 350 100"
   version="1.1"
   id="svg5"
   inkscape:version="1.1 (c68e22c387, 2021-05-23)"
   sodipodi:docname="Robotica_logo.svg"
   inkscape:export-filename="E:\robotica\Inkscape\Robotica_logo.png"
   inkscape:export-xdpi="96"
   inkscape:export-ydpi="96"
   xmlns:inkscape="http://www.inkscape.org/namespaces/inkscape"
   xmlns:sodipodi="http://sodipodi.sourceforge.net/DTD/sodipodi-0.dtd"
   xmlns="http://www.w3.org/2000/svg"
   xmlns:svg="http://www.w3.org/2000/svg">
  <sodipodi:namedview
     id="namedview7"
     pagecolor="#ffffff"
     bordercolor="#666666"
     borderopacity="1.0"
     inkscape:pageshadow="2"
     inkscape:pageopacity="0.0"
     inkscape:pagecheckerboard="0"
     inkscape:document-units="mm"
     showgrid="false"
     width="1000mm"
     inkscape:zoom="0.8398631"
     inkscape:cx="420.90193"
     inkscape:cy="188.72123"
     inkscape:window-width="1280"
     inkscape:window-height="961"
     inkscape:window-x="-8"
     inkscape:window-y="-8"
     inkscape:window-maximized="1"
     inkscape:current-layer="layer1" />
  <defs
     id="defs2" />
  <g
     inkscape:label="Camada 1"
     inkscape:groupmode="layer"
     id="layer1">
    <path
       style="fill:#ffffff;stroke-width:0.999993"
       d="m 156.34979,92.929472 c -2.22232,-0.332541 -2.31409,-0.421042 -2.31409,-2.232113 v -1.275545 l -0.80644,-0.253575 c -0.44353,-0.139474 -1.39362,-0.505164 -2.11132,-0.812661 l -1.3049,-0.55903 -0.9605,0.927275 c -1.24865,1.205459 -1.42099,1.209402 -2.97415,0.06815 -1.37585,-1.010971 -3.74776,-3.372193 -4.51306,-4.492733 -0.64126,-0.938919 -0.64062,-0.941071 0.66648,-2.200538 0.50836,-0.489851 0.92428,-0.925572 0.92428,-0.968277 0,-0.0427 -0.21693,-0.46556 -0.48209,-0.939705 -0.26513,-0.474112 -0.64024,-1.332175 -0.83357,-1.906802 l -0.35147,-1.044797 -1.30522,-0.03495 c -1.74929,-0.04675 -1.88718,-0.08901 -2.05904,-0.6312 -0.59093,-1.864188 -0.48562,-7.710284 0.15284,-8.485083 0.0984,-0.119458 0.60265,-0.175306 1.58273,-0.175306 0.98305,0 1.48221,-0.05548 1.57711,-0.175312 0.0763,-0.09642 0.25075,-0.522422 0.38749,-0.946674 0.13674,-0.42425 0.49803,-1.27066 0.80286,-1.880908 l 0.55424,-1.109547 -1.0648,-1.03418 c -0.58564,-0.568802 -1.0648,-1.102395 -1.0648,-1.185763 0,-0.210661 0.90829,-1.452754 1.67474,-2.290229 1.71125,-1.869805 4.36048,-3.999721 4.97493,-3.999721 0.14925,0 0.72663,0.441425 1.28303,0.980948 l 1.01165,0.980942 1.10269,-0.509704 c 0.60647,-0.280335 1.54446,-0.652471 2.08442,-0.826965 l 0.98174,-0.317262 0.0701,-1.39549 c 0.0415,-0.825939 0.14308,-1.483056 0.24888,-1.610045 0.27454,-0.32952 2.02692,-0.528129 4.6598,-0.528129 2.63289,0 4.38527,0.198609 4.65981,0.528129 0.10583,0.126989 0.20738,0.784106 0.24888,1.610045 l 0.0701,1.39549 0.98174,0.313437 c 0.53996,0.172393 1.47826,0.544205 2.08514,0.826255 l 1.10344,0.512817 1.01091,-0.980231 c 0.58702,-0.569201 1.13209,-0.980237 1.29989,-0.980237 0.84115,0 4.62515,3.324457 6.05015,5.315408 0.66335,0.926817 0.6026,1.173214 -0.55573,2.253919 l -0.99741,0.930564 0.53068,1.044423 c 0.29186,0.574433 0.69554,1.486204 0.89705,2.026159 l 0.36637,0.981735 1.48947,0.03967 c 1.08703,0.02894 1.53481,0.09423 1.65713,0.241613 0.25959,0.312815 0.55832,2.637756 0.5585,4.346905 0,1.982027 -0.33401,4.28374 -0.65678,4.523007 -0.15299,0.113414 -0.74304,0.175298 -1.67103,0.175298 h -1.43452 l -0.2436,0.736316 c -0.13395,0.404954 -0.51072,1.312919 -0.83723,2.017693 l -0.59365,1.281388 0.96621,0.958818 c 1.11688,1.10833 1.16703,1.325153 0.52299,2.261242 -0.88607,1.287876 -4.27174,4.460819 -5.40292,5.063439 -0.58989,0.314269 -0.93124,0.182441 -1.97327,-0.762113 l -1.01738,-0.922219 -1.36168,0.584063 c -0.74891,0.321238 -1.69532,0.686807 -2.10314,0.812377 l -0.74146,0.228313 v 1.272301 c 0,1.534953 -0.14519,1.806615 -1.08692,2.03341 -0.67062,0.161514 -5.63297,0.312652 -6.41634,0.195438 z m 5.18253,-11.487046 c 3.19299,-0.831676 6.06627,-3.648158 6.87836,-6.742352 0.25845,-0.984827 0.2894,-3.046815 0.0618,-4.122722 -0.22629,-1.069967 -0.94732,-2.571862 -1.73145,-3.606602 -2.97333,-3.923652 -9.09942,-4.879712 -13.31937,-2.078671 -1.87667,1.245662 -3.36044,3.30797 -3.8918,5.409261 -0.37741,1.49244 -0.31782,3.652529 0.13769,4.992015 1.11423,3.276384 4.18082,5.780422 7.80419,6.372513 0.94354,0.154163 3.05733,0.0379 4.06055,-0.223442 z M 68.41423,91.66723 C 66.191903,91.3347 66.100136,91.246188 66.100136,89.435128 V 88.159605 L 65.293707,87.906008 C 64.850173,87.766523 63.900075,87.400844 63.18238,87.093347 l -1.304896,-0.559041 -0.960496,0.927286 c -1.248659,1.205459 -1.420991,1.209402 -2.974161,0.06815 -1.375844,-1.010971 -3.747754,-3.372193 -4.513054,-4.492744 -0.641263,-0.938919 -0.640611,-0.94106 0.666486,-2.200538 0.508354,-0.48984 0.924273,-0.925561 0.924273,-0.968277 0,-0.04271 -0.216937,-0.465549 -0.482079,-0.939694 -0.26515,-0.474112 -0.640255,-1.332186 -0.833567,-1.906813 l -0.35148,-1.044793 -1.305217,-0.03491 c -1.749304,-0.04677 -1.887191,-0.08905 -2.059048,-0.631198 -0.590932,-1.864188 -0.485626,-7.710284 0.152838,-8.485077 0.09844,-0.119461 0.602661,-0.175309 1.582723,-0.175309 0.98305,0 1.482212,-0.05548 1.577123,-0.175313 0.07638,-0.09642 0.250746,-0.522424 0.387492,-0.946674 0.136744,-0.42425 0.498031,-1.270659 0.80286,-1.880906 l 0.554234,-1.109544 -1.064798,-1.034185 c -0.58564,-0.568799 -1.064802,-1.102395 -1.064802,-1.185762 0,-0.210657 0.908291,-1.452754 1.674745,-2.29023 1.711239,-1.869804 4.360466,-3.99972 4.974923,-3.99972 0.149259,0 0.72662,0.441426 1.283028,0.980945 l 1.01165,0.980942 1.102687,-0.5097 c 0.606482,-0.280335 1.544472,-0.652471 2.084428,-0.826966 l 0.981734,-0.317266 0.07012,-1.395487 c 0.0415,-0.825938 0.143077,-1.483054 0.248879,-1.610046 0.274534,-0.329518 2.026911,-0.528127 4.659795,-0.528127 2.632895,0 4.385272,0.198609 4.659807,0.528127 0.105834,0.126992 0.207386,0.784108 0.248879,1.610046 l 0.07012,1.395487 0.981733,0.313441 c 0.53996,0.172389 1.478278,0.544206 2.085158,0.826254 l 1.103425,0.512817 1.010916,-0.98023 c 0.587013,-0.5692 1.132085,-0.980237 1.299879,-0.980237 0.841156,0 4.625151,3.324453 6.050152,5.315411 0.663358,0.926814 0.60261,1.17321 -0.555732,2.253913 l -0.997405,0.930567 0.530677,1.044424 c 0.291868,0.574429 0.695544,1.4862 0.897054,2.026155 l 0.366367,0.981738 1.489495,0.03967 c 1.08701,0.02894 1.534778,0.09423 1.657083,0.241611 0.259614,0.312814 0.558341,2.637758 0.558527,4.346906 2.29e-4,1.982029 -0.334016,4.283743 -0.656781,4.523 -0.152985,0.113412 -0.743033,0.175321 -1.67103,0.175321 h -1.434525 l -0.243582,0.7363 c -0.133969,0.404969 -0.510723,1.312913 -0.837246,2.017687 l -0.593653,1.281388 0.966213,0.958829 c 1.116892,1.108329 1.167045,1.325152 0.522998,2.261242 -0.886078,1.287865 -4.271759,4.460819 -5.402915,5.063439 -0.589907,0.314269 -0.931241,0.182441 -1.973285,-0.762124 l -1.017394,-0.922203 -1.361664,0.584063 c -0.748909,0.321226 -1.695309,0.686796 -2.103125,0.812377 l -0.741471,0.228302 v 1.272301 c 0,1.534963 -0.145197,1.806626 -1.086923,2.033421 -0.67062,0.161503 -5.632965,0.312652 -6.416344,0.195426 z m 5.182532,-11.487035 c 3.192985,-0.831676 6.066284,-3.648165 6.878355,-6.742357 0.258469,-0.984823 0.2894,-3.046816 0.06182,-4.122719 -0.226303,-1.069967 -0.947328,-2.571861 -1.73145,-3.606602 -2.973322,-3.923652 -9.099425,-4.879712 -13.319368,-2.078671 -1.876668,1.245663 -3.360441,3.307968 -3.891812,5.409261 -0.377408,1.492441 -0.31782,3.652529 0.137699,4.992012 1.114224,3.276389 4.180821,5.780427 7.804186,6.372518 0.943539,0.154174 3.057345,0.03779 4.060551,-0.223442 z M 289.72574,91.246483 c -2.22233,-0.33253 -2.3141,-0.421042 -2.3141,-2.232102 v -1.275523 l -0.80643,-0.253598 c -0.44353,-0.139484 -1.39361,-0.505163 -2.11131,-0.81266 l -1.30489,-0.559041 -0.96053,0.927286 c -1.24864,1.205459 -1.42098,1.209412 -2.97412,0.06815 -1.37586,-1.010971 -3.74779,-3.372193 -4.51309,-4.492733 -0.64123,-0.938929 -0.64059,-0.94107 0.66648,-2.200548 0.50838,-0.48984 0.92429,-0.925561 0.92429,-0.968255 0,-0.0427 -0.21692,-0.465572 -0.48207,-0.939716 -0.26515,-0.474112 -0.64026,-1.332176 -0.83358,-1.906806 l -0.35148,-1.044801 -1.30522,-0.03491 c -1.74928,-0.04678 -1.88718,-0.08906 -2.05904,-0.631198 -0.59095,-1.864191 -0.48564,-7.710281 0.15282,-8.485076 0.0985,-0.119462 0.60266,-0.175313 1.58275,-0.175313 0.98304,0 1.4822,-0.05548 1.5771,-0.175309 0.0763,-0.09642 0.25075,-0.522425 0.38751,-0.946674 0.13674,-0.42425 0.49805,-1.27066 0.80287,-1.880906 l 0.55422,-1.109545 -1.0648,-1.034187 c -0.58564,-0.568799 -1.0648,-1.102392 -1.0648,-1.18576 0,-0.210657 0.9083,-1.452754 1.67473,-2.290229 1.71124,-1.869805 4.36049,-3.999717 4.97494,-3.999717 0.14926,0 0.72661,0.441419 1.28303,0.980941 l 1.01165,0.980942 1.10271,-0.5097 c 0.60646,-0.280338 1.54445,-0.652468 2.0844,-0.826965 l 0.98176,-0.317266 0.0701,-1.395484 c 0.0415,-0.825941 0.14308,-1.483059 0.24889,-1.610047 0.27453,-0.32952 2.0269,-0.528129 4.65979,-0.528129 2.63289,0 4.38528,0.198609 4.65981,0.528129 0.10583,0.126988 0.20735,0.784106 0.24887,1.610047 l 0.0701,1.395484 0.98174,0.313441 c 0.53997,0.172392 1.47828,0.544205 2.08514,0.826257 l 1.10345,0.512814 1.0109,-0.980234 c 0.58702,-0.569198 1.13208,-0.98023 1.2999,-0.98023 0.84114,0 4.62513,3.324453 6.05014,5.315407 0.66339,0.926811 0.60261,1.173211 -0.55572,2.253917 l -0.99742,0.930563 0.53066,1.044425 c 0.2919,0.574431 0.69556,1.4862 0.89705,2.026154 l 0.36642,0.981738 1.48948,0.03967 c 1.08697,0.02894 1.53478,0.09424 1.65708,0.24161 0.25959,0.312818 0.55835,2.637756 0.55854,4.346905 0,1.98204 -0.33403,4.28374 -0.65681,4.523005 -0.15297,0.113409 -0.74302,0.175318 -1.67102,0.175318 h -1.43453 l -0.24359,0.7363 c -0.13395,0.404968 -0.51075,1.312912 -0.83725,2.017685 l -0.59363,1.281388 0.96619,0.958819 c 1.11689,1.108329 1.16704,1.325152 0.52301,2.261242 -0.88605,1.287865 -4.27175,4.460819 -5.40293,5.063439 -0.58988,0.314269 -0.93125,0.182441 -1.97326,-0.762125 l -1.0174,-0.922208 -1.36167,0.584075 c -0.7489,0.321237 -1.69532,0.686796 -2.10312,0.812366 l -0.74148,0.228313 v 1.272311 c 0,1.534953 -0.14518,1.806615 -1.08692,2.03341 -0.67061,0.161504 -5.63297,0.312653 -6.41634,0.195416 z m 5.18254,-11.487035 c 3.19299,-0.831676 6.06626,-3.648162 6.87837,-6.742354 0.25845,-0.984821 0.28936,-3.046812 0.0618,-4.122719 -0.22633,-1.069967 -0.94735,-2.571862 -1.73148,-3.606602 -2.97331,-3.923652 -9.09942,-4.879712 -13.31936,-2.078671 -1.87668,1.245661 -3.36044,3.307968 -3.89179,5.409264 -0.37742,1.49244 -0.31783,3.652523 0.13768,4.992008 1.11423,3.276406 4.18081,5.780424 7.80419,6.372516 0.94354,0.154185 3.05736,0.03779 4.06056,-0.223442 z M 118.39497,90.917349 c -2.86633,-0.363123 -5.20701,-1.527864 -7.03224,-3.499346 -0.43403,-0.468793 -0.82403,-0.852373 -0.86667,-0.852373 -0.0426,0 -0.0776,0.82047 -0.0776,1.823238 v 1.823206 h -7.2929 -7.292896 V 64.196066 38.180038 h 7.292896 7.2929 v 10.799105 c 0,5.972659 0.0542,10.799105 0.12117,10.799105 0.0666,0 0.29962,-0.257493 0.51772,-0.572212 1.00966,-1.456939 3.2871,-3.168967 5.26743,-3.959702 2.97781,-1.18903 6.58894,-1.353598 9.72978,-0.443415 4.15358,1.20366 7.01556,4.292032 8.3979,9.062211 0.67581,2.332071 0.86039,3.976043 0.85595,7.623837 -0.004,3.926198 -0.25463,5.727266 -1.17741,8.487216 -0.98072,2.933228 -2.12788,4.913765 -3.92699,6.779784 -2.0293,2.104752 -4.26237,3.357033 -7.04089,3.948448 -1.20389,0.25624 -3.58645,0.362642 -4.76822,0.212934 z m -1.69691,-10.736586 c 2.4985,-0.741984 3.94718,-3.727924 3.95581,-8.153529 0.007,-3.473731 -1.02863,-5.800826 -3.01848,-6.784123 -0.60376,-0.298357 -0.88922,-0.343746 -2.16792,-0.344703 -1.37084,-9.41e-4 -1.52445,0.0276 -2.22271,0.414378 -1.44033,0.797798 -2.50634,2.379323 -2.91817,4.329354 -0.16081,0.76151 -0.19817,1.634615 -0.15399,3.599923 0.0507,2.253845 0.10125,2.719974 0.38488,3.549362 0.58158,1.700287 1.82801,3.07093 3.13791,3.450567 0.69921,0.202646 2.2184,0.17166 3.00267,-0.06127 z m 76.6071,10.736182 c -7.99334,-0.08727 -7.74405,-0.06258 -9.18361,-0.906283 -0.82632,-0.484248 -1.92173,-1.70692 -2.39534,-2.673667 -0.3802,-0.77604 -0.41227,-0.961451 -0.41227,-2.384213 0,-1.439757 0.0295,-1.604985 0.44197,-2.475553 1.07884,-2.27708 3.16836,-3.484985 6.02858,-3.484985 h 0.89247 v -6.942287 -6.94228 h -2.80496 -2.80496 v -5.048931 -5.048935 h 2.80252 2.80252 l 0.0375,-3.465247 0.0375,-3.465251 6.94228,-1.931842 c 3.81826,-1.062515 7.02118,-1.932952 7.1176,-1.934305 0.13725,-0.0019 0.1753,1.16964 0.1753,5.397093 v 5.399552 h 3.64646 3.64644 v 5.048935 5.048931 h -3.65323 -3.6532 l 0.0422,6.205977 c 0.0397,5.853932 0.0583,6.245758 0.32636,6.907226 l 0.28413,0.701234 2.31012,0.07886 c 3.09747,0.105725 3.8777,0.352856 5.22396,1.654374 1.10715,1.070342 1.57001,1.928701 1.79806,3.334435 0.51767,3.190834 -1.71811,6.306568 -4.86085,6.773995 -1.25869,0.187192 -6.59943,0.242523 -14.78752,0.153159 z m 15.67904,-2.078343 c 3.36929,-1.799013 3.30651,-6.226804 -0.1115,-7.86403 l -0.77138,-0.369479 h -11.00946 -11.00947 l -0.70126,0.347286 c -0.89487,0.443159 -1.74374,1.291917 -2.18118,2.180834 -0.27857,0.566097 -0.34277,0.909091 -0.34057,1.819569 0.003,1.381936 0.39253,2.230409 1.46559,3.195202 1.25178,1.125444 0.51874,1.066826 12.97725,1.037948 l 11.07961,-0.02567 z m -21.48007,-1.489266 c -1.73244,-0.641262 -2.29437,-2.713663 -1.09596,-4.041764 0.87503,-0.969708 2.03167,-1.219155 3.10775,-0.670184 1.72503,0.88005 1.89985,3.365804 0.31067,4.41747 -0.66503,0.440101 -1.60655,0.559467 -2.32246,0.294478 z m 1.5834,-1.854486 c 0.35512,-0.451449 0.36766,-0.770654 0.0452,-1.151656 -0.83901,-0.991563 -2.24637,0.143482 -1.4997,1.20951 0.31948,0.456124 1.07378,0.426132 1.45447,-0.05789 z m 7.27384,1.913913 c -1.45181,-0.437633 -2.22166,-2.260325 -1.52841,-3.618626 0.92113,-1.804769 3.3305,-1.92206 4.49749,-0.218898 0.50407,0.735595 0.53382,1.579296 0.0878,2.490779 -0.31286,0.63946 -0.49235,0.823473 -1.09729,1.124941 -0.73521,0.366378 -1.27674,0.427661 -1.95966,0.221804 z m 1.48996,-1.811748 c 0.35307,-0.390112 0.242,-1.110689 -0.2246,-1.457516 -0.32608,-0.242337 -0.43209,-0.257082 -0.78826,-0.10957 -0.36134,0.149686 -0.72835,0.643818 -0.72835,0.980674 0,0.06313 0.1308,0.281011 0.29066,0.484247 0.35724,0.454147 1.08559,0.505448 1.45055,0.102121 z m 7.16453,1.747079 c -1.10129,-0.403928 -1.88131,-1.705587 -1.67642,-2.797588 0.12334,-0.657568 0.50887,-1.244297 1.12764,-1.716268 0.45949,-0.350454 0.64791,-0.401907 1.47153,-0.401907 0.84751,0 0.99996,0.04478 1.48353,0.435601 0.77512,0.626517 1.08993,1.236848 1.08993,2.11325 0,1.733951 -1.83499,2.976216 -3.49621,2.366912 z m 1.61286,-1.760186 c 0.86626,-0.866265 -0.4901,-2.158062 -1.40066,-1.33401 -0.61134,0.553264 -0.1516,1.614497 0.69943,1.614497 0.23373,0 0.54541,-0.124663 0.70123,-0.280487 z m 45.1599,5.314404 c -8.14125,-0.713008 -14.38402,-5.650342 -16.201,-12.813105 -0.88438,-3.486328 -0.74608,-7.743782 0.36898,-11.358273 2.63052,-8.526754 10.93653,-13.164149 22.26617,-12.431585 2.71907,0.175811 5.22706,0.568697 6.37714,0.998993 l 0.79278,0.296618 v 5.64995 5.649952 l -1.32216,-0.663104 c -1.85263,-0.929156 -3.27441,-1.292805 -5.35676,-1.370121 -4.51694,-0.167709 -7.37359,1.490401 -8.55134,4.963584 -0.31824,0.938382 -0.37639,1.352118 -0.38242,2.719603 -0.0117,2.649848 0.64171,4.402436 2.16834,5.815838 1.54769,1.432854 3.3413,2.031313 6.10087,2.035627 2.33092,0.0033 4.59791,-0.505032 6.46226,-1.449969 0.4024,-0.203946 0.76531,-0.370823 0.80644,-0.370823 0.0411,0 0.0748,2.395288 0.0748,5.322858 v 5.322869 l -0.59606,0.262913 c -1.59355,0.702884 -4.37311,1.215868 -7.74869,1.430069 -2.5077,0.159112 -3.32797,0.157266 -5.25932,-0.0119 z m 72.92903,0.0022 c -2.73638,-0.212553 -8.31878,-1.144853 -8.87067,-1.481446 -0.10518,-0.06422 -0.1546,-10.145522 -0.0498,-10.145522 0.0304,0 0.5196,0.197644 1.08691,0.439205 1.80676,0.769334 3.64546,1.392563 5.44931,1.847049 1.60954,0.405522 1.9426,0.441979 4.06722,0.445125 2.14234,0.0033 2.36899,-0.02141 3.05434,-0.331078 1.16663,-0.527215 1.64802,-1.475384 1.24219,-2.446599 -0.35558,-0.851084 -1.27537,-1.306247 -5.74457,-2.842811 -6.51817,-2.240992 -8.94733,-4.838218 -9.17247,-9.807086 -0.21772,-4.803296 1.99636,-8.340847 6.57903,-10.511668 2.67658,-1.267909 5.54644,-1.793768 9.79166,-1.794172 3.38783,-2.25e-4 6.14843,0.348157 9.29141,1.172898 l 0.52594,0.138009 v 4.84951 c 0,4.555997 -0.0147,4.844599 -0.24544,4.768365 -0.13499,-0.04463 -1.07219,-0.365269 -2.08267,-0.712529 -4.54361,-1.561427 -8.33096,-1.773099 -9.48364,-0.530032 -0.43878,0.473169 -0.54249,0.883716 -0.37578,1.487445 0.28907,1.04698 1.19681,1.562122 4.8245,2.737892 2.67473,0.866912 5.26673,2.113341 6.52152,3.136035 1.27628,1.040191 2.24559,2.44309 2.74875,3.97828 0.37676,1.149579 0.40655,1.39681 0.40311,3.345025 -0.003,1.760229 -0.0558,2.28562 -0.32261,3.217789 -1.52619,5.333015 -6.46337,8.465252 -14.25944,9.046618 -2.17336,0.16206 -2.82115,0.161241 -4.97881,-0.0066 z M 4.6714664,65.586295 V 40.960502 l 11.7457796,0.06488 c 9.655702,0.05333 12.045249,0.104534 13.428751,0.287728 4.905102,0.649511 8.005804,1.740701 10.378361,3.65233 1.816506,1.463598 2.957248,3.170815 3.665899,5.486308 0.366617,1.197921 0.386298,1.405152 0.386298,4.067198 0,2.650736 -0.02086,2.87273 -0.379125,4.037505 -0.903586,2.937567 -2.531576,5.151765 -5.040598,6.855605 -1.147596,0.779319 -3.429038,1.851833 -4.752964,2.23439 -0.606256,0.175178 -1.102286,0.358074 -1.102286,0.406432 0,0.04835 0.457559,0.26398 1.016801,0.479164 3.072922,1.182389 5.259078,3.375966 6.987345,7.011053 0.527682,1.109879 5.740169,14.381646 5.740169,14.615311 0,0.0308 -3.733943,0.03965 -8.297648,0.01966 l -8.297648,-0.03616 -2.004645,-5.820299 c -1.1149,-3.237012 -2.286911,-6.380826 -2.640612,-7.083208 -0.812919,-1.614312 -1.800395,-2.831029 -2.885963,-3.555935 -0.972955,-0.649711 -1.595455,-0.859297 -2.555685,-0.860422 l -0.666179,-6.26e-4 v 8.695384 8.695389 H 12.034491 4.6714664 Z M 24.23117,62.227976 c 1.214332,-0.316294 2.09657,-0.853521 3.016363,-1.836787 1.120177,-1.197474 1.452509,-2.075751 1.452509,-3.83865 0,-1.662771 -0.356814,-2.6896 -1.276137,-3.672434 -1.203548,-1.286688 -2.497341,-1.656992 -5.789322,-1.656992 h -2.237066 v 5.609924 5.609925 h 2.004131 c 1.348108,0 2.274312,-0.07037 2.829522,-0.214986 z m 190.6722,10.382977 V 55.009811 h 7.29289 7.29291 v 17.601142 17.601121 h -7.29291 -7.29289 z m -0.74689,-19.376515 c -0.0521,-0.05203 -0.0946,-0.712337 -0.0946,-1.467351 v -1.372753 l -0.52593,-0.09215 c -0.76374,-0.13382 -1.66218,-0.694692 -2.06693,-1.290373 -0.49478,-0.728132 -0.49556,-1.886231 -0.002,-2.613912 l 0.35062,-0.516668 -0.002,-4.727146 -0.002,-4.727144 -0.38479,-0.220028 c -1.16523,-0.666843 -0.79118,-2.234315 0.5342,-2.234315 1.31746,0 1.74446,1.564731 0.60967,2.234271 l -0.47581,0.280733 v 4.469297 c 0,2.458111 0.0393,4.508666 0.0875,4.556785 0.048,0.04812 0.32961,-0.03603 0.62553,-0.187 0.29592,-0.150965 0.69833,-0.274483 0.89424,-0.274483 h 0.35622 v -2.281853 c 0,-3.202205 0.40392,-4.623199 1.843,-6.483657 1.065,-1.376826 2.39461,-2.303499 4.12061,-2.871873 1.38824,-0.457145 3.54275,-0.467097 4.8607,-0.02246 2.90489,0.980012 4.75876,2.859838 5.75893,5.83954 0.0777,0.231411 0.1807,1.617424 0.22895,3.080033 l 0.0877,2.659286 0.42075,0.08966 c 0.2314,0.04931 0.65742,0.190533 0.94667,0.313829 l 0.52594,0.224175 -0.002,-4.585973 -0.002,-4.585965 -0.41992,-0.238938 c -1.1457,-0.652538 -0.74479,-2.215405 0.56935,-2.215405 1.31748,0 1.74447,1.564732 0.60968,2.23427 l -0.47581,0.280736 v 4.773165 c 0,3.022598 0.0504,4.773164 0.13741,4.773164 0.23194,0 0.70408,1.081517 0.70408,1.612857 0,0.625622 -0.42043,1.469645 -0.95695,1.921098 -0.39322,0.330867 -0.73648,0.490729 -1.63764,0.762672 l -0.42075,0.126966 -0.0701,1.399595 -0.0701,1.399593 -8.28524,0.03616 c -4.55685,0.01986 -8.32778,-0.0064 -8.37982,-0.05843 z m 16.45467,-2.993062 v -2.804961 h -8.1344 -8.13438 v 2.804961 2.804963 h 8.13438 8.1344 z m -10.7991,0 v -1.262233 h 2.6647 2.66473 v 1.262233 1.262232 h -2.66473 -2.6647 z m 5.04892,0 v -0.981735 h -2.38422 -2.38421 v 0.981735 0.981737 h 2.38421 2.38422 z M 213.92162,47.69856 v -2.262322 l -0.51052,0.08284 c -1.10754,0.179726 -2.01395,1.165797 -2.01395,2.190924 0,0.855011 0.65891,1.703649 1.60321,2.064889 0.9497,0.363296 0.92126,0.427385 0.92126,-2.076339 z m 18.50982,1.861518 c 0.98301,-0.507041 1.43808,-1.857205 0.94756,-2.811213 -0.28429,-0.552846 -1.14122,-1.151114 -1.76955,-1.235393 l -0.57755,-0.07747 v 2.279967 2.279967 l 0.45286,-0.09056 c 0.24909,-0.04982 0.67508,-0.205194 0.94668,-0.345293 z m -1.86315,-5.735052 c -0.0317,-1.754855 -0.13184,-3.562152 -0.22267,-4.016214 -0.38523,-1.926179 -1.5814,-3.70247 -3.3108,-4.91646 -1.12969,-0.793018 -2.16243,-1.191828 -3.48035,-1.344003 -1.10043,-0.127061 -3.09629,0.02716 -3.57826,0.276495 -0.12884,0.06667 -0.66254,0.330591 -1.18596,0.586505 -1.58667,0.775764 -3.13031,2.460126 -3.67639,4.011596 -0.12945,0.367785 -0.30762,0.79493 -0.39593,0.949202 -0.10539,0.184225 -0.17806,1.544082 -0.21155,3.962008 l -0.051,3.681516 h 8.08524 8.08524 z m -12.22298,-1.815417 c -0.8326,-0.226423 -1.33822,-0.9351 -1.33822,-1.875634 0,-0.491914 0.0862,-0.670668 0.54449,-1.128948 0.4668,-0.466803 0.6319,-0.544359 1.15706,-0.543569 0.77099,0.0012 1.34763,0.369835 1.68128,1.074947 0.32254,0.681652 0.32193,0.784488 -0.009,1.432758 -0.41408,0.811642 -1.26954,1.248842 -2.03583,1.040446 z m 1.22669,-0.745822 c 0.70844,-0.557262 0.61795,-1.678053 -0.17323,-2.145407 -0.5983,-0.353425 -0.96307,-0.291296 -1.51184,0.25749 -0.43884,0.43885 -0.48523,0.55344 -0.41145,1.016797 0.16252,1.020923 1.30342,1.494971 2.09652,0.87112 z m -1.1975,-0.430268 c -0.28193,-0.164213 -0.32938,-0.830443 -0.0771,-1.082701 0.0926,-0.09256 0.30084,-0.168298 0.46282,-0.168298 0.162,0 0.37028,0.07573 0.46282,0.168298 0.2667,0.266674 0.20449,0.924459 -0.103,1.089001 -0.33144,0.177389 -0.43159,0.17654 -0.74552,-0.0063 z m 0.46752,-0.786558 c 0.14803,0.03872 0.2338,0.01318 0.1906,-0.05677 -0.21065,-0.340822 -0.80205,0.03847 -0.64842,0.415851 0.0734,0.180284 0.10299,0.159117 0.14078,-0.100558 0.0357,-0.245964 0.11574,-0.311157 0.31704,-0.258514 z m 6.91618,1.963757 c -0.16217,-0.03194 -0.50929,-0.279296 -0.77136,-0.549685 -0.42287,-0.436278 -0.47648,-0.577251 -0.47648,-1.25249 0,-0.665359 0.055,-0.815955 0.43874,-1.199626 0.59468,-0.594677 1.50747,-0.711945 2.20174,-0.282869 0.51425,0.317826 0.93584,1.030256 0.93584,1.581413 0,0.493297 -0.6627,1.376991 -1.20145,1.602096 -0.47475,0.198368 -0.58373,0.208145 -1.12703,0.101161 z m 1.4044,-0.89623 c 0.60819,-0.722776 0.4514,-1.614552 -0.3574,-2.0328 -1.02536,-0.530219 -2.16295,0.464995 -1.79744,1.572459 0.19724,0.597635 0.61765,0.891845 1.27445,0.891845 0.40549,0 0.59578,-0.09327 0.88039,-0.431504 z m -1.36828,-0.385963 c -0.44122,-0.487566 -0.20836,-1.146005 0.40532,-1.146005 0.31607,0 0.76506,0.397441 0.76506,0.677221 0,0.224501 -0.51758,0.725261 -0.74963,0.725261 -0.10376,0 -0.29309,-0.115418 -0.42075,-0.256477 z m 0.51283,-0.774671 c 0.25723,-0.05587 0.25038,-0.06294 -0.0423,-0.04369 -0.19881,0.0131 -0.35561,0.113581 -0.36413,0.233346 -0.009,0.115702 0.0109,0.135363 0.0423,0.04369 0.0315,-0.09168 0.19529,-0.196683 0.36412,-0.233344 z m -13.7115,-4.221784 c 0.4192,-0.419193 0.43643,-0.766127 0.0583,-1.172039 -0.55791,-0.59887 -1.53726,-0.244483 -1.53726,0.556285 0,0.465712 0.43654,0.960001 0.84788,0.960001 0.15777,0 0.44177,-0.154913 0.6311,-0.344247 z m 21.03721,0 c 0.4192,-0.419193 0.43647,-0.766127 0.0583,-1.172039 -0.58233,-0.625092 -1.53726,-0.240927 -1.53726,0.618454 0,0.841523 0.86664,1.165913 1.47899,0.553585 z m -72.56745,11.178414 c 0.35081,-0.366397 2.29481,-2.449082 4.31999,-4.628189 l 3.68213,-3.962008 h 6.04991 6.04988 l -0.34742,0.340695 c -0.1911,0.187381 -2.49092,2.270068 -5.1107,4.628189 l -4.76326,4.287493 h -5.2592 -5.25921 z m 46.42898,-2.450295 c -0.39317,-0.636157 -0.59429,-1.997701 -0.44798,-3.032768 0.11549,-0.817123 0.47332,-1.772266 0.72134,-1.925569 0.17817,-0.110106 0.15218,0.03857 -0.0879,0.502825 -0.11612,0.224526 -0.30203,0.805176 -0.41319,1.290329 -0.16924,0.73888 -0.17278,1.020447 -0.0217,1.734141 0.0992,0.468623 0.28535,1.062649 0.41378,1.320061 0.31072,0.622856 0.19877,0.698463 -0.16431,0.110981 z m 29.95766,-0.354665 c 0.30678,-0.661502 0.374,-1.008064 0.374,-1.928415 0,-0.920352 -0.0672,-1.26691 -0.374,-1.92841 -0.20566,-0.443537 -0.32211,-0.806428 -0.25874,-0.806428 0.0633,0 0.26497,0.331337 0.44807,0.736303 0.27106,0.599696 0.33279,0.970488 0.33279,1.998535 0,1.028049 -0.0617,1.398841 -0.33279,1.998534 -0.1831,0.40497 -0.38472,0.736303 -0.44807,0.736303 -0.0633,0 0.0531,-0.362891 0.25874,-0.806422 z m -28.7984,-0.238986 c -0.32057,-0.489294 -0.48083,-1.402891 -0.38242,-2.180297 0.0887,-0.700751 0.39308,-1.402482 0.60829,-1.402482 0.0769,0 0.028,0.170779 -0.10878,0.379517 -0.35682,0.544566 -0.35171,2.490893 0.008,3.039836 0.14114,0.215428 0.22509,0.423241 0.1865,0.461809 -0.0385,0.03857 -0.17876,-0.09571 -0.31155,-0.298383 z m 27.466,0.120665 c 0.0457,-0.14705 0.17903,-0.519813 0.29644,-0.828357 0.32949,-0.866048 0.28141,-1.349986 -0.26119,-2.629652 -0.0596,-0.140712 -0.0435,-0.245435 0.038,-0.245435 0.209,0 0.58919,1.221773 0.58919,1.89335 0,0.638618 -0.36069,1.839694 -0.5962,1.98524 -0.0945,0.05841 -0.11879,-0.0058 -0.0662,-0.175146 z m -26.3827,-0.974611 c -0.20855,-0.457772 -0.20867,-1.212923 0,-1.670375 0.26451,-0.580538 0.39531,-0.407215 0.15478,0.205113 -0.18489,0.470724 -0.1929,0.655719 -0.0491,1.135639 0.19769,0.659832 0.13476,0.856678 -0.1054,0.329623 z m 25.32316,0.006 c 0.0581,-0.231411 0.10562,-0.610081 0.10562,-0.841492 0,-0.231408 -0.0475,-0.610078 -0.10562,-0.841489 -0.0992,-0.395366 -0.0927,-0.404322 0.10693,-0.148502 0.12673,0.162321 0.2125,0.562029 0.2125,0.989991 0,0.427965 -0.0857,0.827671 -0.2125,0.989996 -0.19971,0.255819 -0.20616,0.246863 -0.10693,-0.148504 z m -85.27699,-1.865735 c -0.20496,-0.226468 -1.61508,-3.725449 -2.16184,-5.364188 -0.22621,-0.678068 -0.23614,-0.685884 -2.21084,-1.741757 -0.53996,-0.288713 -1.00166,-0.543389 -1.026,-0.565946 -0.0244,-0.02255 0.15592,-0.395727 0.40059,-0.829269 0.35033,-0.620732 0.41005,-0.830211 0.28104,-0.985669 -0.0901,-0.108575 -1.15395,-0.729921 -2.36408,-1.380764 -1.21013,-0.650845 -2.48424,-1.340478 -2.83135,-1.532524 -1.40875,-0.779408 -6.42807,-3.542102 -7.08253,-3.898319 -0.38569,-0.209921 -1.14302,-0.620349 -1.68298,-0.912056 -1.13989,-0.61582 -1.88737,-1.027429 -2.64331,-1.455561 -0.29677,-0.16808 -1.08566,-0.596085 -1.7531,-0.951129 -0.66744,-0.355042 -1.23561,-0.664025 -1.26261,-0.686624 -0.027,-0.0226 0.40815,-0.502858 0.967,-1.067235 1.04105,-1.051353 1.55381,-1.743812 1.98465,-2.680184 0.33623,-0.730766 0.81402,-2.368694 0.81402,-2.79058 0,-0.19095 0.0407,-0.387895 0.0904,-0.437653 0.0796,-0.07963 1.53348,0.640903 3.20536,1.588604 0.71421,0.40485 1.4314,0.800819 2.66472,1.471245 1.32267,0.718987 2.98593,1.63166 7.15266,3.924806 1.9284,1.061297 4.16887,2.278688 4.9788,2.705308 0.80993,0.42662 1.55631,0.840703 1.6586,0.920185 0.20788,0.161514 0.23419,0.131848 0.82285,-0.927976 0.20461,-0.36838 0.40843,-0.652383 0.45295,-0.631118 0.0446,0.02128 0.64399,0.349458 1.33215,0.72931 l 1.25122,0.690643 0.99274,-0.153345 c 0.54603,-0.08434 2.06534,-0.38244 3.37626,-0.662446 1.67084,-0.356875 2.46794,-0.470624 2.6659,-0.380431 0.16189,0.07376 1.11977,1.586416 2.24469,3.544694 1.07926,1.878814 2.54484,4.427359 3.25684,5.663432 0.71199,1.236072 1.29577,2.389404 1.29729,2.562962 0.003,0.376186 -0.45768,0.876551 -0.80754,0.876551 -0.62756,0 -0.63723,-0.01491 -5.21263,-8.064266 -0.78922,-1.388458 -1.48055,-2.572469 -1.53627,-2.631136 -0.0557,-0.05867 -0.8864,0.0557 -1.84594,0.254146 -0.95953,0.198445 -2.50194,0.516622 -3.42758,0.707056 -1.87136,0.385008 -1.84852,0.369044 -2.58193,1.804274 -0.23817,0.466067 -0.78276,1.478513 -1.21019,2.249876 -0.42743,0.771365 -0.94255,1.727698 -1.14472,2.125189 l -0.36756,0.722709 0.42516,1.17064 c 0.23385,0.643857 0.62726,1.707091 0.87429,2.362752 0.247,0.65566 0.59461,1.602335 0.77248,2.103721 l 0.32338,0.911611 1.3143,-0.0015 c 1.63235,-0.0015 5.67856,-0.166143 8.47135,-0.344669 1.15945,-0.07412 2.2639,-0.09743 2.45434,-0.05184 0.45265,0.108401 0.69684,0.428059 0.69684,0.912176 0,0.639226 -0.46082,0.823188 -2.40368,0.959527 -0.94586,0.06637 -1.75708,0.09761 -1.80272,0.0694 -0.0456,-0.02819 -1.53189,0.03723 -3.30277,0.145418 -4.64064,0.283506 -6.27134,0.271492 -6.56077,-0.04833 z M 97.235205,36.494108 c 0,-0.155889 0.400367,-0.802784 0.889682,-1.437541 2.058393,-2.670172 7.341263,-9.561942 10.098763,-13.174326 1.63144,-2.137207 3.01358,-3.888555 3.07144,-3.891885 0.0579,-0.0034 0.10518,0.06822 0.10518,0.158991 0,0.243411 0.96766,1.619709 1.61286,2.293959 1.22657,1.281804 3.63255,2.768098 4.76843,2.945693 0.15427,0.02413 0.45998,0.09785 0.67936,0.16384 l 0.39886,0.119986 -0.97029,1.257994 c -0.53366,0.691899 -1.40737,1.828407 -1.94159,2.525574 -0.53421,0.697164 -2.35977,3.079626 -4.05677,5.29435 l -3.08545,4.026778 -5.78524,8e-6 c -5.711752,1.7e-5 -5.785235,-0.0036 -5.785235,-0.283421 z M 118.76329,20.654679 c -0.64152,-0.189808 -2.27581,-0.821007 -2.77824,-1.073021 -0.53842,-0.27007 -2.51858,-2.25398 -2.80712,-2.812461 -0.87892,-1.701108 -1.07419,-4.259973 -0.4553,-5.966255 0.46457,-1.2807915 0.96489,-2.0957981 1.74026,-2.8347386 0.97332,-0.9276067 1.32841,-1.1774054 2.29984,-1.6178723 3.87413,-1.756612 8.4128,0.043797 10.05505,3.9886389 0.37954,0.911699 0.47091,1.338739 0.52345,2.446499 0.0496,1.046037 0.0162,1.419335 -0.15171,1.692627 -0.11845,0.192843 -0.34709,0.634625 -0.5081,0.981737 -0.56176,1.211139 -0.62594,1.336087 -0.97505,1.898304 -0.99393,1.600692 -2.16716,2.624143 -3.4917,3.045932 -0.91391,0.291025 -2.84167,0.431003 -3.45138,0.25061 z m 3.59366,-2.072959 c 1.69739,-0.835678 2.64778,-1.97616 3.22304,-3.867707 0.34101,-1.121248 0.33489,-1.899407 -0.0245,-3.111001 -0.38876,-1.310848 -1.12874,-2.3757527 -2.21113,-3.1820195 -1.18185,-0.8803572 -2.08054,-1.1335755 -3.80716,-1.0727347 -1.17339,0.041351 -1.45743,0.1039008 -2.25396,0.4964027 -1.16141,0.5722963 -2.26501,1.6772529 -2.84033,2.8437875 -0.42548,0.862773 -0.44811,0.990271 -0.44811,2.524466 0,1.536271 0.0222,1.660674 0.45042,2.527415 0.62026,1.255316 1.69456,2.318534 2.91552,2.88542 1.14389,0.531103 1.4321,0.577163 2.96254,0.473457 0.89088,-0.06037 1.33432,-0.173211 2.0336,-0.517486 z m -3.43259,-2.424376 c -1.74191,-0.522123 -2.6166,-2.673332 -1.78526,-4.390662 0.35011,-0.723219 0.81976,-1.117338 1.70269,-1.428853 1.12666,-0.3975099 1.93912,-0.238252 3.05729,0.599282 0.89439,0.66992 1.27842,2.326328 0.80309,3.463949 -0.57984,1.387754 -2.31542,2.194618 -3.77781,1.756284 z"
       id="path153" />
  </g>
</svg>
